solid STL generated by MeshLab
  facet normal  9.399921e-02 -9.954571e-01  1.514200e-02
    outer loop
      vertex   1.334521e+04 -3.225377e+01  1.685075e+03
      vertex   1.308825e+04 -5.651804e+01  1.685075e+03
      vertex   1.303300e+04 -6.626414e+01  1.387342e+03
    endloop
  endfacet
  facet normal  9.433451e-02 -9.954308e-01  1.478740e-02
    outer loop
      vertex   1.334521e+04 -3.225377e+01  1.685075e+03
      vertex   1.303300e+04 -6.626414e+01  1.387342e+03
      vertex   1.333274e+04 -3.785822e+01  1.387342e+03
    endloop
  endfacet
  facet normal  9.447307e-02 -9.954387e-01  1.328964e-02
    outer loop
      vertex   1.335740e+04 -2.699679e+01  1.982986e+03
      vertex   1.314267e+04 -4.737617e+01  1.982986e+03
      vertex   1.308825e+04 -5.651804e+01  1.685075e+03
    endloop
  endfacet
  facet normal  9.400113e-02 -9.954775e-01  1.371986e-02
    outer loop
      vertex   1.335740e+04 -2.699679e+01  1.982986e+03
      vertex   1.308825e+04 -5.651804e+01  1.685075e+03
      vertex   1.334521e+04 -3.225377e+01  1.685075e+03
    endloop
  endfacet
  facet normal  9.578361e-02 -9.953281e-01  1.214258e-02
    outer loop
      vertex   1.336951e+04 -2.189177e+01  2.282554e+03
      vertex   1.319694e+04 -3.849857e+01  2.282554e+03
      vertex   1.314267e+04 -4.737617e+01  1.982986e+03
    endloop
  endfacet
  facet normal  9.447324e-02 -9.954407e-01  1.314441e-02
    outer loop
      vertex   1.336951e+04 -2.189177e+01  2.282554e+03
      vertex   1.314267e+04 -4.737617e+01  1.982986e+03
      vertex   1.335740e+04 -2.699679e+01  1.982986e+03
    endloop
  endfacet
  facet normal  6.982188e-02 -9.973801e-01  1.891683e-02
    outer loop
      vertex   1.314267e+04 -4.737617e+01  1.982986e+03
      vertex   1.296077e+04 -6.082843e+01  1.945116e+03
      vertex   1.295873e+04 -6.167181e+01  1.908164e+03
    endloop
  endfacet
  facet normal  6.982561e-02 -9.973798e-01  1.891528e-02
    outer loop
      vertex   1.314267e+04 -4.737617e+01  1.982986e+03
      vertex   1.296685e+04 -5.831061e+01  2.055458e+03
      vertex   1.296280e+04 -5.998759e+01  1.981983e+03
    endloop
  endfacet
  facet normal  6.982573e-02 -9.973802e-01  1.889832e-02
    outer loop
      vertex   1.296280e+04 -5.998759e+01  1.981983e+03
      vertex   1.296077e+04 -6.082843e+01  1.945116e+03
      vertex   1.314267e+04 -4.737617e+01  1.982986e+03
    endloop
  endfacet
  facet normal  7.242186e-02 -9.971835e-01  1.949734e-02
    outer loop
      vertex   1.308825e+04 -5.651804e+01  1.685075e+03
      vertex   1.294645e+04 -6.681157e+01  1.685324e+03
      vertex   1.294235e+04 -6.856351e+01  1.610939e+03
    endloop
  endfacet
  facet normal  6.977128e-02 -9.973818e-01  1.901285e-02
    outer loop
      vertex   1.314267e+04 -4.737617e+01  1.982986e+03
      vertex   1.295669e+04 -6.251772e+01  1.871163e+03
      vertex   1.295465e+04 -6.336566e+01  1.834164e+03
    endloop
  endfacet
  facet normal  7.242170e-02 -9.971913e-01  1.909584e-02
    outer loop
      vertex   1.295465e+04 -6.336566e+01  1.834164e+03
      vertex   1.294645e+04 -6.681157e+01  1.685324e+03
      vertex   1.308825e+04 -5.651804e+01  1.685075e+03
    endloop
  endfacet
  facet normal  6.980725e-02 -9.973805e-01  1.895287e-02
    outer loop
      vertex   1.314267e+04 -4.737617e+01  1.982986e+03
      vertex   1.295873e+04 -6.167181e+01  1.908164e+03
      vertex   1.295669e+04 -6.251772e+01  1.871163e+03
    endloop
  endfacet
  facet normal  5.991417e-02 -9.979780e-01  2.121559e-02
    outer loop
      vertex   1.321392e+04 -3.266572e+01  2.581620e+03
      vertex   1.298687e+04 -4.974417e+01  2.419444e+03
      vertex   1.298491e+04 -5.062046e+01  2.383756e+03
    endloop
  endfacet
  facet normal  5.908291e-02 -9.979806e-01  2.332504e-02
    outer loop
      vertex   1.321392e+04 -3.266572e+01  2.581620e+03
      vertex   1.299576e+04 -4.558134e+01  2.581620e+03
      vertex   1.299456e+04 -4.616576e+01  2.559657e+03
    endloop
  endfacet
  facet normal  5.919409e-02 -9.979990e-01  2.222591e-02
    outer loop
      vertex   1.299456e+04 -4.616576e+01  2.559657e+03
      vertex   1.298687e+04 -4.974417e+01  2.419444e+03
      vertex   1.321392e+04 -3.266572e+01  2.581620e+03
    endloop
  endfacet
  facet normal  6.694341e-02 -9.975718e-01  1.921393e-02
    outer loop
      vertex   1.319694e+04 -3.849857e+01  2.282554e+03
      vertex   1.297090e+04 -5.662642e+01  2.128935e+03
      vertex   1.296887e+04 -5.747087e+01  2.092152e+03
    endloop
  endfacet
  facet normal  6.079410e-02 -9.979432e-01  2.033282e-02
    outer loop
      vertex   1.321392e+04 -3.266572e+01  2.581620e+03
      vertex   1.298096e+04 -5.235631e+01  2.311741e+03
      vertex   1.297897e+04 -5.321523e+01  2.275535e+03
    endloop
  endfacet
  facet normal  6.049480e-02 -9.979562e-01  2.059199e-02
    outer loop
      vertex   1.321392e+04 -3.266572e+01  2.581620e+03
      vertex   1.298294e+04 -5.149147e+01  2.347827e+03
      vertex   1.298096e+04 -5.235631e+01  2.311741e+03
    endloop
  endfacet
  facet normal  6.672232e-02 -9.975803e-01  1.954027e-02
    outer loop
      vertex   1.297897e+04 -5.321523e+01  2.275535e+03
      vertex   1.297090e+04 -5.662642e+01  2.128935e+03
      vertex   1.319694e+04 -3.849857e+01  2.282554e+03
    endloop
  endfacet
  facet normal  6.019761e-02 -9.979679e-01  2.088661e-02
    outer loop
      vertex   1.321392e+04 -3.266572e+01  2.581620e+03
      vertex   1.298491e+04 -5.062046e+01  2.383756e+03
      vertex   1.298294e+04 -5.149147e+01  2.347827e+03
    endloop
  endfacet
  facet normal  6.700657e-02 -9.975690e-01  1.913799e-02
    outer loop
      vertex   1.296887e+04 -5.747087e+01  2.092152e+03
      vertex   1.296685e+04 -5.831061e+01  2.055458e+03
      vertex   1.319694e+04 -3.849857e+01  2.282554e+03
    endloop
  endfacet
  facet normal  7.496244e-02 -9.969786e-01  2.035265e-02
    outer loop
      vertex   1.293826e+04 -7.034288e+01  1.536500e+03
      vertex   1.293006e+04 -7.400441e+01  1.387342e+03
      vertex   1.303300e+04 -6.626414e+01  1.387342e+03
    endloop
  endfacet
  facet normal  7.083318e-02 -9.973317e-01  1.766592e-02
    outer loop
      vertex   1.295465e+04 -6.336566e+01  1.834164e+03
      vertex   1.308825e+04 -5.651804e+01  1.685075e+03
      vertex   1.314267e+04 -4.737617e+01  1.982986e+03
    endloop
  endfacet
  facet normal  7.299126e-02 -9.971497e-01  1.909590e-02
    outer loop
      vertex   1.303300e+04 -6.626414e+01  1.387342e+03
      vertex   1.308825e+04 -5.651804e+01  1.685075e+03
      vertex   1.293826e+04 -7.034288e+01  1.536500e+03
    endloop
  endfacet
  facet normal  1.287345e-01 -9.916056e-01  1.206931e-02
    outer loop
      vertex   1.362041e+04 -1.505921e-01  1.387342e+03
      vertex   1.359801e+04 -1.505921e-01  1.626197e+03
      vertex   1.334521e+04 -3.225377e+01  1.685075e+03
    endloop
  endfacet
  facet normal  1.299594e-01 -9.914312e-01  1.322030e-02
    outer loop
      vertex   1.362041e+04 -1.505921e-01  1.387342e+03
      vertex   1.334521e+04 -3.225377e+01  1.685075e+03
      vertex   1.333274e+04 -3.785822e+01  1.387342e+03
    endloop
  endfacet
  facet normal  1.285069e-01 -9.916354e-01  1.204798e-02
    outer loop
      vertex   1.359801e+04 -1.505921e-01  1.626197e+03
      vertex   1.357562e+04 -1.505921e-01  1.865053e+03
      vertex   1.335740e+04 -2.699679e+01  1.982986e+03
    endloop
  endfacet
  facet normal  1.287708e-01 -9.915990e-01  1.222866e-02
    outer loop
      vertex   1.359801e+04 -1.505921e-01  1.626197e+03
      vertex   1.335740e+04 -2.699679e+01  1.982986e+03
      vertex   1.334521e+04 -3.225377e+01  1.685075e+03
    endloop
  endfacet
  facet normal  6.685119e-02 -9.976400e-01  1.566293e-02
    outer loop
      vertex   1.297897e+04 -5.321523e+01  2.275535e+03
      vertex   1.319694e+04 -3.849857e+01  2.282554e+03
      vertex   1.321392e+04 -3.266572e+01  2.581620e+03
    endloop
  endfacet
  facet normal  9.578349e-02 -9.953268e-01  1.224929e-02
    outer loop
      vertex   1.319694e+04 -3.849857e+01  2.282554e+03
      vertex   1.336951e+04 -2.189177e+01  2.282554e+03
      vertex   1.336555e+04 -1.859286e+01  2.581620e+03
    endloop
  endfacet
  facet normal  9.240590e-02 -9.956205e-01  1.417302e-02
    outer loop
      vertex   1.319694e+04 -3.849857e+01  2.282554e+03
      vertex   1.336555e+04 -1.859286e+01  2.581620e+03
      vertex   1.321392e+04 -3.266572e+01  2.581620e+03
    endloop
  endfacet
  facet normal  6.906109e-02 -9.974667e-01  1.704744e-02
    outer loop
      vertex   1.319694e+04 -3.849857e+01  2.282554e+03
      vertex   1.296685e+04 -5.831061e+01  2.055458e+03
      vertex   1.314267e+04 -4.737617e+01  1.982986e+03
    endloop
  endfacet
  facet normal  1.287225e-01 -9.916117e-01  1.169460e-02
    outer loop
      vertex   1.336951e+04 -2.189177e+01  2.282554e+03
      vertex   1.335740e+04 -2.699679e+01  1.982986e+03
      vertex   1.355322e+04 -1.505921e-01  2.103908e+03
    endloop
  endfacet
  facet normal  1.291150e-01 -9.915558e-01  1.210498e-02
    outer loop
      vertex   1.336951e+04 -2.189177e+01  2.282554e+03
      vertex   1.355322e+04 -1.505921e-01  2.103908e+03
      vertex   1.353083e+04 -1.505921e-01  2.342764e+03
    endloop
  endfacet
  facet normal  1.285072e-01 -9.916353e-01  1.204854e-02
    outer loop
      vertex   1.357562e+04 -1.505921e-01  1.865053e+03
      vertex   1.355322e+04 -1.505921e-01  2.103908e+03
      vertex   1.335740e+04 -2.699679e+01  1.982986e+03
    endloop
  endfacet
  facet normal  1.279947e-01 -9.917023e-01  1.200049e-02
    outer loop
      vertex   1.336555e+04 -1.859286e+01  2.581620e+03
      vertex   1.353083e+04 -1.505921e-01  2.342764e+03
      vertex   1.350844e+04 -1.505921e-01  2.581620e+03
    endloop
  endfacet
  facet normal  1.289151e-01 -9.915749e-01  1.264726e-02
    outer loop
      vertex   1.336951e+04 -2.189177e+01  2.282554e+03
      vertex   1.353083e+04 -1.505921e-01  2.342764e+03
      vertex   1.336555e+04 -1.859286e+01  2.581620e+03
    endloop
  endfacet
  facet normal  7.223809e-02 -9.971897e-01  1.985997e-02
    outer loop
      vertex   1.308825e+04 -5.651804e+01  1.685075e+03
      vertex   1.294235e+04 -6.856351e+01  1.610939e+03
      vertex   1.293826e+04 -7.034288e+01  1.536500e+03
    endloop
  endfacet
  facet normal  9.433448e-02  9.954308e-01  1.478741e-02
    outer loop
      vertex   1.334521e+04  3.195259e+01  1.685075e+03
      vertex   1.333274e+04  3.755704e+01  1.387342e+03
      vertex   1.303300e+04  6.596295e+01  1.387342e+03
    endloop
  endfacet
  facet normal  9.399920e-02  9.954571e-01  1.514199e-02
    outer loop
      vertex   1.334521e+04  3.195259e+01  1.685075e+03
      vertex   1.303300e+04  6.596295e+01  1.387342e+03
      vertex   1.308825e+04  5.621685e+01  1.685075e+03
    endloop
  endfacet
  facet normal  9.400112e-02  9.954775e-01  1.371986e-02
    outer loop
      vertex   1.335740e+04  2.669560e+01  1.982986e+03
      vertex   1.334521e+04  3.195259e+01  1.685075e+03
      vertex   1.308825e+04  5.621685e+01  1.685075e+03
    endloop
  endfacet
  facet normal  9.447306e-02  9.954387e-01  1.328964e-02
    outer loop
      vertex   1.335740e+04  2.669560e+01  1.982986e+03
      vertex   1.308825e+04  5.621685e+01  1.685075e+03
      vertex   1.314267e+04  4.707499e+01  1.982986e+03
    endloop
  endfacet
  facet normal  9.447324e-02  9.954407e-01  1.314442e-02
    outer loop
      vertex   1.336951e+04  2.159058e+01  2.282554e+03
      vertex   1.335740e+04  2.669560e+01  1.982986e+03
      vertex   1.314267e+04  4.707499e+01  1.982986e+03
    endloop
  endfacet
  facet normal  9.578364e-02  9.953281e-01  1.214257e-02
    outer loop
      vertex   1.336951e+04  2.159058e+01  2.282554e+03
      vertex   1.314267e+04  4.707499e+01  1.982986e+03
      vertex   1.319694e+04  3.819739e+01  2.282554e+03
    endloop
  endfacet
  facet normal  6.982262e-02  9.973801e-01  1.891453e-02
    outer loop
      vertex   1.314267e+04  4.707499e+01  1.982986e+03
      vertex   1.295873e+04  6.137122e+01  1.908138e+03
      vertex   1.296077e+04  6.052754e+01  1.945103e+03
    endloop
  endfacet
  facet normal  6.982563e-02  9.973798e-01  1.891602e-02
    outer loop
      vertex   1.314267e+04  4.707499e+01  1.982986e+03
      vertex   1.296280e+04  5.968641e+01  1.981983e+03
      vertex   1.296685e+04  5.800991e+01  2.055438e+03
    endloop
  endfacet
  facet normal  6.982575e-02  9.973801e-01  1.889957e-02
    outer loop
      vertex   1.296280e+04  5.968641e+01  1.981983e+03
      vertex   1.314267e+04  4.707499e+01  1.982986e+03
      vertex   1.296077e+04  6.052754e+01  1.945103e+03
    endloop
  endfacet
  facet normal  7.242174e-02  9.971835e-01  1.949818e-02
    outer loop
      vertex   1.308825e+04  5.621685e+01  1.685075e+03
      vertex   1.294235e+04  6.826420e+01  1.610860e+03
      vertex   1.294645e+04  6.651286e+01  1.685219e+03
    endloop
  endfacet
  facet normal  6.977165e-02  9.973817e-01  1.901235e-02
    outer loop
      vertex   1.314267e+04  4.707499e+01  1.982986e+03
      vertex   1.295465e+04  6.306567e+01  1.834112e+03
      vertex   1.295669e+04  6.221743e+01  1.871124e+03
    endloop
  endfacet
  facet normal  7.242189e-02  9.971912e-01  1.909611e-02
    outer loop
      vertex   1.295465e+04  6.306567e+01  1.834112e+03
      vertex   1.308825e+04  5.621685e+01  1.685075e+03
      vertex   1.294645e+04  6.651286e+01  1.685219e+03
    endloop
  endfacet
  facet normal  6.980649e-02  9.973804e-01  1.895425e-02
    outer loop
      vertex   1.314267e+04  4.707499e+01  1.982986e+03
      vertex   1.295669e+04  6.221743e+01  1.871124e+03
      vertex   1.295873e+04  6.137122e+01  1.908138e+03
    endloop
  endfacet
  facet normal  5.991470e-02  9.979780e-01  2.121483e-02
    outer loop
      vertex   1.321392e+04  3.236453e+01  2.581620e+03
      vertex   1.298491e+04  5.031948e+01  2.383748e+03
      vertex   1.298687e+04  4.944258e+01  2.419460e+03
    endloop
  endfacet
  facet normal  5.908293e-02  9.979806e-01  2.332513e-02
    outer loop
      vertex   1.321392e+04  3.236453e+01  2.581620e+03
      vertex   1.299456e+04  4.586165e+01  2.559768e+03
      vertex   1.299576e+04  4.528016e+01  2.581620e+03
    endloop
  endfacet
  facet normal  5.919347e-02  9.979990e-01  2.222686e-02
    outer loop
      vertex   1.299456e+04  4.586165e+01  2.559768e+03
      vertex   1.321392e+04  3.236453e+01  2.581620e+03
      vertex   1.298687e+04  4.944258e+01  2.419460e+03
    endloop
  endfacet
  facet normal  6.694277e-02  9.975718e-01  1.921465e-02
    outer loop
      vertex   1.319694e+04  3.819739e+01  2.282554e+03
      vertex   1.296887e+04  5.717041e+01  2.092121e+03
      vertex   1.297090e+04  5.632621e+01  2.128893e+03
    endloop
  endfacet
  facet normal  6.079590e-02  9.979431e-01  2.033117e-02
    outer loop
      vertex   1.321392e+04  3.236453e+01  2.581620e+03
      vertex   1.297896e+04  5.291601e+01  2.275452e+03
      vertex   1.298095e+04  5.205651e+01  2.311683e+03
    endloop
  endfacet
  facet normal  6.049437e-02  9.979561e-01  2.059246e-02
    outer loop
      vertex   1.321392e+04  3.236453e+01  2.581620e+03
      vertex   1.298095e+04  5.205651e+01  2.311683e+03
      vertex   1.298294e+04  5.119108e+01  2.347794e+03
    endloop
  endfacet
  facet normal  6.672233e-02  9.975803e-01  1.953988e-02
    outer loop
      vertex   1.297896e+04  5.291601e+01  2.275452e+03
      vertex   1.319694e+04  3.819739e+01  2.282554e+03
      vertex   1.297090e+04  5.632621e+01  2.128893e+03
    endloop
  endfacet
  facet normal  6.019726e-02  9.979680e-01  2.088684e-02
    outer loop
      vertex   1.321392e+04  3.236453e+01  2.581620e+03
      vertex   1.298294e+04  5.119108e+01  2.347794e+03
      vertex   1.298491e+04  5.031948e+01  2.383748e+03
    endloop
  endfacet
  facet normal  6.700741e-02  9.975690e-01  1.913691e-02
    outer loop
      vertex   1.296887e+04  5.717041e+01  2.092121e+03
      vertex   1.319694e+04  3.819739e+01  2.282554e+03
      vertex   1.296685e+04  5.800991e+01  2.055438e+03
    endloop
  endfacet
  facet normal  7.496245e-02  9.969786e-01  2.035282e-02
    outer loop
      vertex   1.293825e+04  7.004297e+01  1.536447e+03
      vertex   1.303300e+04  6.596295e+01  1.387342e+03
      vertex   1.293006e+04  7.370322e+01  1.387342e+03
    endloop
  endfacet
  facet normal  7.083357e-02  9.973317e-01  1.766585e-02
    outer loop
      vertex   1.295465e+04  6.306567e+01  1.834112e+03
      vertex   1.314267e+04  4.707499e+01  1.982986e+03
      vertex   1.308825e+04  5.621685e+01  1.685075e+03
    endloop
  endfacet
  facet normal  7.299164e-02  9.971496e-01  1.909583e-02
    outer loop
      vertex   1.303300e+04  6.596295e+01  1.387342e+03
      vertex   1.293825e+04  7.004297e+01  1.536447e+03
      vertex   1.308825e+04  5.621685e+01  1.685075e+03
    endloop
  endfacet
  facet normal  1.299594e-01  9.914312e-01  1.322031e-02
    outer loop
      vertex   1.362041e+04 -1.505921e-01  1.387342e+03
      vertex   1.333274e+04  3.755704e+01  1.387342e+03
      vertex   1.334521e+04  3.195259e+01  1.685075e+03
    endloop
  endfacet
  facet normal  1.287345e-01  9.916056e-01  1.206931e-02
    outer loop
      vertex   1.362041e+04 -1.505921e-01  1.387342e+03
      vertex   1.334521e+04  3.195259e+01  1.685075e+03
      vertex   1.359801e+04 -1.505921e-01  1.626197e+03
    endloop
  endfacet
  facet normal  1.287708e-01  9.915990e-01  1.222865e-02
    outer loop
      vertex   1.359801e+04 -1.505921e-01  1.626197e+03
      vertex   1.334521e+04  3.195259e+01  1.685075e+03
      vertex   1.335740e+04  2.669560e+01  1.982986e+03
    endloop
  endfacet
  facet normal  1.285069e-01  9.916354e-01  1.204798e-02
    outer loop
      vertex   1.359801e+04 -1.505921e-01  1.626197e+03
      vertex   1.335740e+04  2.669560e+01  1.982986e+03
      vertex   1.357562e+04 -1.505921e-01  1.865053e+03
    endloop
  endfacet
  facet normal  6.685269e-02  9.976400e-01  1.566287e-02
    outer loop
      vertex   1.297896e+04  5.291601e+01  2.275452e+03
      vertex   1.321392e+04  3.236453e+01  2.581620e+03
      vertex   1.319694e+04  3.819739e+01  2.282554e+03
    endloop
  endfacet
  facet normal  9.240589e-02  9.956205e-01  1.417303e-02
    outer loop
      vertex   1.319694e+04  3.819739e+01  2.282554e+03
      vertex   1.321392e+04  3.236453e+01  2.581620e+03
      vertex   1.336555e+04  1.829168e+01  2.581620e+03
    endloop
  endfacet
  facet normal  9.578352e-02  9.953268e-01  1.224929e-02
    outer loop
      vertex   1.319694e+04  3.819739e+01  2.282554e+03
      vertex   1.336555e+04  1.829168e+01  2.581620e+03
      vertex   1.336951e+04  2.159058e+01  2.282554e+03
    endloop
  endfacet
  facet normal  6.906104e-02  9.974667e-01  1.704743e-02
    outer loop
      vertex   1.319694e+04  3.819739e+01  2.282554e+03
      vertex   1.314267e+04  4.707499e+01  1.982986e+03
      vertex   1.296685e+04  5.800991e+01  2.055438e+03
    endloop
  endfacet
  facet normal  1.291150e-01  9.915558e-01  1.210498e-02
    outer loop
      vertex   1.336951e+04  2.159058e+01  2.282554e+03
      vertex   1.353083e+04 -1.505921e-01  2.342764e+03
      vertex   1.355322e+04 -1.505921e-01  2.103908e+03
    endloop
  endfacet
  facet normal  1.287225e-01  9.916117e-01  1.169461e-02
    outer loop
      vertex   1.336951e+04  2.159058e+01  2.282554e+03
      vertex   1.355322e+04 -1.505921e-01  2.103908e+03
      vertex   1.335740e+04  2.669560e+01  1.982986e+03
    endloop
  endfacet
  facet normal  1.285072e-01  9.916353e-01  1.204854e-02
    outer loop
      vertex   1.357562e+04 -1.505921e-01  1.865053e+03
      vertex   1.335740e+04  2.669560e+01  1.982986e+03
      vertex   1.355322e+04 -1.505921e-01  2.103908e+03
    endloop
  endfacet
  facet normal  1.279947e-01  9.917023e-01  1.200049e-02
    outer loop
      vertex   1.336555e+04  1.829168e+01  2.581620e+03
      vertex   1.350844e+04 -1.505921e-01  2.581620e+03
      vertex   1.353083e+04 -1.505921e-01  2.342764e+03
    endloop
  endfacet
  facet normal  1.289151e-01  9.915749e-01  1.264725e-02
    outer loop
      vertex   1.336951e+04  2.159058e+01  2.282554e+03
      vertex   1.336555e+04  1.829168e+01  2.581620e+03
      vertex   1.353083e+04 -1.505921e-01  2.342764e+03
    endloop
  endfacet
  facet normal  7.223828e-02  9.971896e-01  1.985984e-02
    outer loop
      vertex   1.308825e+04  5.621685e+01  1.685075e+03
      vertex   1.293825e+04  7.004297e+01  1.536447e+03
      vertex   1.294235e+04  6.826420e+01  1.610860e+03
    endloop
  endfacet
endsolid vcg
