solid STL generated by MeshLab
  facet normal  5.852065e-02  1.021318e-01 -9.930481e-01
    outer loop
      vertex   1.125596e+04  1.061727e+03  3.182277e+02
      vertex   1.173400e+04  8.608727e+02  3.257414e+02
      vertex   1.125712e+04  8.608870e+02  2.976403e+02
    endloop
  endfacet
  facet normal  4.611492e-02  9.928431e-02 -9.939900e-01
    outer loop
      vertex   1.125480e+04  1.262627e+03  3.382407e+02
      vertex   1.142684e+04  1.247098e+03  3.446711e+02
      vertex   1.125596e+04  1.061727e+03  3.182277e+02
    endloop
  endfacet
  facet normal  5.422208e-02  9.185445e-02 -9.942951e-01
    outer loop
      vertex   1.173400e+04  8.608727e+02  3.257414e+02
      vertex   1.125596e+04  1.061727e+03  3.182277e+02
      vertex   1.142684e+04  1.247098e+03  3.446711e+02
    endloop
  endfacet
  facet normal  5.949811e-02  9.601632e-02 -9.936000e-01
    outer loop
      vertex   1.142684e+04  1.247098e+03  3.446711e+02
      vertex   1.173124e+04  1.215628e+03  3.598579e+02
      vertex   1.173400e+04  8.608727e+02  3.257414e+02
    endloop
  endfacet
  facet normal  6.621193e-02  9.602755e-02 -9.931741e-01
    outer loop
      vertex   1.173400e+04  8.608727e+02  3.257414e+02
      vertex   1.173124e+04  1.215628e+03  3.598579e+02
      vertex   1.214494e+04  9.678784e+02  3.634836e+02
    endloop
  endfacet
  facet normal  8.426218e-02  1.262379e-01 -9.884148e-01
    outer loop
      vertex   1.201325e+04  1.182040e+03  3.796092e+02
      vertex   1.207909e+04  1.074959e+03  3.715464e+02
      vertex   1.173124e+04  1.215628e+03  3.598579e+02
    endloop
  endfacet
  facet normal  8.426221e-02  1.262380e-01 -9.884148e-01
    outer loop
      vertex   1.214494e+04  9.678784e+02  3.634836e+02
      vertex   1.173124e+04  1.215628e+03  3.598579e+02
      vertex   1.207909e+04  1.074959e+03  3.715464e+02
    endloop
  endfacet
  facet normal  6.175132e-02  1.126432e-01 -9.917148e-01
    outer loop
      vertex   1.221078e+04  8.607974e+02  3.554209e+02
      vertex   1.173400e+04  8.608727e+02  3.257414e+02
      vertex   1.214494e+04  9.678784e+02  3.634836e+02
    endloop
  endfacet
  facet normal  7.113121e-02  1.654897e-01  9.836430e-01
    outer loop
      vertex   1.128802e+04  1.259756e+03  4.849356e+02
      vertex   1.126538e+04  1.261719e+03  4.862426e+02
      vertex   1.126741e+04  1.161397e+03  5.029741e+02
    endloop
  endfacet
  facet normal  7.731983e-02  1.515255e-01  9.854246e-01
    outer loop
      vertex   1.135660e+04  1.253637e+03  4.804957e+02
      vertex   1.128802e+04  1.259756e+03  4.849356e+02
      vertex   1.139670e+04  1.057197e+03  5.075552e+02
    endloop
  endfacet
  facet normal  1.044626e-01  1.655554e-01  9.806523e-01
    outer loop
      vertex   1.128802e+04  1.259756e+03  4.849356e+02
      vertex   1.135510e+04  8.607562e+02  5.451505e+02
      vertex   1.139670e+04  1.057197e+03  5.075552e+02
    endloop
  endfacet
  facet normal  8.455019e-02  1.625725e-01  9.830674e-01
    outer loop
      vertex   1.135510e+04  8.607562e+02  5.451505e+02
      vertex   1.128802e+04  1.259756e+03  4.849356e+02
      vertex   1.126741e+04  1.161397e+03  5.029741e+02
    endloop
  endfacet
  facet normal  1.188201e-01  1.745366e-01  9.774553e-01
    outer loop
      vertex   1.135510e+04  8.607562e+02  5.451505e+02
      vertex   1.127147e+04  9.609214e+02  5.374303e+02
      vertex   1.127350e+04  8.607562e+02  5.550695e+02
    endloop
  endfacet
  facet normal  1.262280e-01  1.606127e-01  9.789127e-01
    outer loop
      vertex   1.139670e+04  1.057197e+03  5.075552e+02
      vertex   1.135510e+04  8.607562e+02  5.451505e+02
      vertex   1.143680e+04  8.607562e+02  5.346147e+02
    endloop
  endfacet
  facet normal  1.157048e-01  1.719992e-01  9.782785e-01
    outer loop
      vertex   1.127147e+04  9.609214e+02  5.374303e+02
      vertex   1.135510e+04  8.607562e+02  5.451505e+02
      vertex   1.126944e+04  1.061133e+03  5.200511e+02
    endloop
  endfacet
  facet normal  1.084019e-01  1.690466e-01  9.796287e-01
    outer loop
      vertex   1.126944e+04  1.061133e+03  5.200511e+02
      vertex   1.135510e+04  8.607562e+02  5.451505e+02
      vertex   1.126741e+04  1.161397e+03  5.029741e+02
    endloop
  endfacet
  facet normal  8.635345e-01  5.042899e-01 -6.222206e-05
    outer loop
      vertex   1.211738e+04  1.020740e+03  3.743950e+02
      vertex   1.221078e+04  8.608014e+02  3.683012e+02
      vertex   1.221078e+04  8.608006e+02  3.618611e+02
    endloop
  endfacet
  facet normal  7.210398e-01  4.615691e-01 -5.167741e-01
    outer loop
      vertex   1.211738e+04  1.020740e+03  3.743950e+02
      vertex   1.221078e+04  8.608006e+02  3.618611e+02
      vertex   1.211470e+04  1.021081e+03  3.709544e+02
    endloop
  endfacet
  facet normal  8.693692e-01  4.941632e-01  1.123352e-04
    outer loop
      vertex   1.212006e+04  1.020398e+03  3.778368e+02
      vertex   1.221078e+04  8.607999e+02  3.747414e+02
      vertex   1.221078e+04  8.608014e+02  3.683012e+02
    endloop
  endfacet
  facet normal  7.273446e-01  4.446713e-01 -5.227210e-01
    outer loop
      vertex   1.212006e+04  1.020398e+03  3.778368e+02
      vertex   1.221078e+04  8.608014e+02  3.683012e+02
      vertex   1.211738e+04  1.020740e+03  3.743950e+02
    endloop
  endfacet
  facet normal  8.518315e-01  5.238159e-01 -2.581518e-04
    outer loop
      vertex   1.214494e+04  9.678784e+02  3.634836e+02
      vertex   1.221078e+04  8.608006e+02  3.618611e+02
      vertex   1.221078e+04  8.607974e+02  3.554209e+02
    endloop
  endfacet
  facet normal  8.103050e-01  5.028365e-01 -3.009340e-01
    outer loop
      vertex   1.211470e+04  1.021081e+03  3.709544e+02
      vertex   1.221078e+04  8.608006e+02  3.618611e+02
      vertex   1.214494e+04  9.678784e+02  3.634836e+02
    endloop
  endfacet
  facet normal  7.147839e-01  4.779716e-01 -5.105165e-01
    outer loop
      vertex   1.201325e+04  1.182040e+03  3.796092e+02
      vertex   1.211470e+04  1.021081e+03  3.709544e+02
      vertex   1.207909e+04  1.074959e+03  3.715464e+02
    endloop
  endfacet
  facet normal  7.147854e-01  4.779724e-01 -5.105137e-01
    outer loop
      vertex   1.214494e+04  9.678784e+02  3.634836e+02
      vertex   1.207909e+04  1.074959e+03  3.715464e+02
      vertex   1.211470e+04  1.021081e+03  3.709544e+02
    endloop
  endfacet
  facet normal  7.148767e-01  4.780205e-01 -5.103408e-01
    outer loop
      vertex   1.211738e+04  1.020740e+03  3.743950e+02
      vertex   1.211470e+04  1.021081e+03  3.709544e+02
      vertex   1.201325e+04  1.182040e+03  3.796092e+02
    endloop
  endfacet
  facet normal  8.693706e-01  4.941605e-01  2.950477e-04
    outer loop
      vertex   1.221078e+04  8.607961e+02  3.811815e+02
      vertex   1.221078e+04  8.607999e+02  3.747414e+02
      vertex   1.212006e+04  1.020398e+03  3.778368e+02
    endloop
  endfacet
  facet normal  7.392898e-01  4.090051e-01 -5.349443e-01
    outer loop
      vertex   1.221078e+04  8.607961e+02  3.811815e+02
      vertex   1.212006e+04  1.020398e+03  3.778368e+02
      vertex   1.215209e+04  9.669684e+02  3.812471e+02
    endloop
  endfacet
  facet normal  7.390375e-01  4.088751e-01 -5.353922e-01
    outer loop
      vertex   1.203471e+04  1.179313e+03  3.813782e+02
      vertex   1.212006e+04  1.020398e+03  3.778368e+02
      vertex   1.211738e+04  1.020740e+03  3.743950e+02
    endloop
  endfacet
  facet normal  7.392111e-01  4.089616e-01 -5.350865e-01
    outer loop
      vertex   1.212006e+04  1.020398e+03  3.778368e+02
      vertex   1.203471e+04  1.179313e+03  3.813782e+02
      vertex   1.209340e+04  1.073141e+03  3.813127e+02
    endloop
  endfacet
  facet normal  7.392516e-01  4.089775e-01 -5.350182e-01
    outer loop
      vertex   1.209340e+04  1.073141e+03  3.813127e+02
      vertex   1.215209e+04  9.669684e+02  3.812471e+02
      vertex   1.212006e+04  1.020398e+03  3.778368e+02
    endloop
  endfacet
  facet normal  9.344570e-02  9.237447e-02 -9.913298e-01
    outer loop
      vertex   1.201325e+04  1.182040e+03  3.796092e+02
      vertex   1.203471e+04  1.179313e+03  3.813782e+02
      vertex   1.211738e+04  1.020740e+03  3.743950e+02
    endloop
  endfacet
  facet normal  2.265391e-01  1.246327e-01  9.659952e-01
    outer loop
      vertex   1.215209e+04  9.669684e+02  3.812471e+02
      vertex   1.201867e+04  8.608085e+02  4.262333e+02
      vertex   1.221078e+04  8.607961e+02  3.811815e+02
    endloop
  endfacet
  facet normal  2.265402e-01  1.246313e-01  9.659951e-01
    outer loop
      vertex   1.209340e+04  1.073141e+03  3.813127e+02
      vertex   1.201867e+04  8.608085e+02  4.262333e+02
      vertex   1.215209e+04  9.669684e+02  3.812471e+02
    endloop
  endfacet
  facet normal  2.224575e-01  1.223759e-01  9.672316e-01
    outer loop
      vertex   1.203471e+04  1.179313e+03  3.813782e+02
      vertex   1.186723e+04  1.199955e+03  4.172856e+02
      vertex   1.209340e+04  1.073141e+03  3.813127e+02
    endloop
  endfacet
  facet normal  2.241247e-01  1.255748e-01  9.664363e-01
    outer loop
      vertex   1.201867e+04  8.608085e+02  4.262333e+02
      vertex   1.209340e+04  1.073141e+03  3.813127e+02
      vertex   1.186723e+04  1.199955e+03  4.172856e+02
    endloop
  endfacet
  facet normal  1.745816e-01  1.214058e-01  9.771295e-01
    outer loop
      vertex   1.186723e+04  1.199955e+03  4.172856e+02
      vertex   1.169806e+04  1.219302e+03  4.451064e+02
      vertex   1.182557e+04  8.607999e+02  4.668681e+02
    endloop
  endfacet
  facet normal  2.045080e-01  1.169583e-01  9.718524e-01
    outer loop
      vertex   1.186723e+04  1.199955e+03  4.172856e+02
      vertex   1.182557e+04  8.607999e+02  4.668681e+02
      vertex   1.201867e+04  8.608085e+02  4.262333e+02
    endloop
  endfacet
  facet normal  1.817621e-01  1.238614e-01  9.755106e-01
    outer loop
      vertex   1.163158e+04  8.607801e+02  5.030154e+02
      vertex   1.182557e+04  8.607999e+02  4.668681e+02
      vertex   1.169806e+04  1.219302e+03  4.451064e+02
    endloop
  endfacet
  facet normal  1.334566e-01  1.338625e-01  9.819726e-01
    outer loop
      vertex   1.163158e+04  8.607801e+02  5.030154e+02
      vertex   1.169806e+04  1.219302e+03  4.451064e+02
      vertex   1.152772e+04  1.237228e+03  4.658134e+02
    endloop
  endfacet
  facet normal  1.578874e-01  1.663096e-01  9.733512e-01
    outer loop
      vertex   1.139670e+04  1.057197e+03  5.075552e+02
      vertex   1.143680e+04  8.607562e+02  5.346147e+02
      vertex   1.163158e+04  8.607801e+02  5.030154e+02
    endloop
  endfacet
  facet normal  9.925064e-02  1.556429e-01  9.828146e-01
    outer loop
      vertex   1.152772e+04  1.237228e+03  4.658134e+02
      vertex   1.135660e+04  1.253637e+03  4.804957e+02
      vertex   1.139670e+04  1.057197e+03  5.075552e+02
    endloop
  endfacet
  facet normal  1.302324e-01  1.330270e-01  9.825189e-01
    outer loop
      vertex   1.152772e+04  1.237228e+03  4.658134e+02
      vertex   1.139670e+04  1.057197e+03  5.075552e+02
      vertex   1.163158e+04  8.607801e+02  5.030154e+02
    endloop
  endfacet
  facet normal  6.237666e-02  3.299624e-03 -9.980472e-01
    outer loop
      vertex   1.164873e+04  2.606311e+03  3.595232e+02
      vertex   1.179774e+04  2.593187e+03  3.687930e+02
      vertex   1.179535e+04  1.900594e+03  3.663539e+02
    endloop
  endfacet
  facet normal  5.783146e-02  2.352603e-03 -9.983236e-01
    outer loop
      vertex   1.164873e+04  2.606311e+03  3.595232e+02
      vertex   1.179535e+04  1.900594e+03  3.663539e+02
      vertex   1.159972e+04  1.920010e+03  3.550667e+02
    endloop
  endfacet
  facet normal  7.086919e-02  3.268295e-03 -9.974803e-01
    outer loop
      vertex   1.169774e+04  3.292611e+03  3.639797e+02
      vertex   1.180013e+04  3.285780e+03  3.712320e+02
      vertex   1.179774e+04  2.593187e+03  3.687930e+02
    endloop
  endfacet
  facet normal  6.226587e-02  2.034239e-03 -9.980575e-01
    outer loop
      vertex   1.169774e+04  3.292611e+03  3.639797e+02
      vertex   1.179774e+04  2.593187e+03  3.687930e+02
      vertex   1.164873e+04  2.606311e+03  3.595232e+02
    endloop
  endfacet
  facet normal  9.032045e-02  3.577152e-03 -9.959063e-01
    outer loop
      vertex   1.174620e+04  3.977776e+03  3.688266e+02
      vertex   1.180219e+04  3.977776e+03  3.739044e+02
      vertex   1.180013e+04  3.285780e+03  3.712320e+02
    endloop
  endfacet
  facet normal  7.078850e-02  2.049457e-03 -9.974892e-01
    outer loop
      vertex   1.174620e+04  3.977776e+03  3.688266e+02
      vertex   1.180013e+04  3.285780e+03  3.712320e+02
      vertex   1.169774e+04  3.292611e+03  3.639797e+02
    endloop
  endfacet
  facet normal  5.042598e-02  2.884058e-03 -9.987236e-01
    outer loop
      vertex   1.149946e+04  2.617856e+03  3.520201e+02
      vertex   1.164873e+04  2.606311e+03  3.595232e+02
      vertex   1.159972e+04  1.920010e+03  3.550667e+02
    endloop
  endfacet
  facet normal  4.481022e-02  2.076111e-03 -9.989933e-01
    outer loop
      vertex   1.149946e+04  2.617856e+03  3.520201e+02
      vertex   1.159972e+04  1.920010e+03  3.550667e+02
      vertex   1.140376e+04  1.937090e+03  3.463123e+02
    endloop
  endfacet
  facet normal  6.096375e-02  2.127749e-03 -9.981377e-01
    outer loop
      vertex   1.159517e+04  3.298623e+03  3.577278e+02
      vertex   1.169774e+04  3.292611e+03  3.639797e+02
      vertex   1.164873e+04  2.606311e+03  3.595232e+02
    endloop
  endfacet
  facet normal  5.030405e-02  1.301549e-03 -9.987332e-01
    outer loop
      vertex   1.159517e+04  3.298623e+03  3.577278e+02
      vertex   1.164873e+04  2.606311e+03  3.595232e+02
      vertex   1.149946e+04  2.617856e+03  3.520201e+02
    endloop
  endfacet
  facet normal  8.721960e-02  8.781046e-04 -9.961887e-01
    outer loop
      vertex   1.169020e+04  3.977776e+03  3.639232e+02
      vertex   1.174620e+04  3.977776e+03  3.688266e+02
      vertex   1.169774e+04  3.292611e+03  3.639797e+02
    endloop
  endfacet
  facet normal  6.087397e-02  5.878669e-04 -9.981453e-01
    outer loop
      vertex   1.169020e+04  3.977776e+03  3.639232e+02
      vertex   1.169774e+04  3.292611e+03  3.639797e+02
      vertex   1.159517e+04  3.298623e+03  3.577278e+02
    endloop
  endfacet
  facet normal  8.383762e-02 -2.640413e-03 -9.964759e-01
    outer loop
      vertex   1.163417e+04  3.977776e+03  3.592098e+02
      vertex   1.169020e+04  3.977776e+03  3.639232e+02
      vertex   1.159517e+04  3.298623e+03  3.577278e+02
    endloop
  endfacet
  facet normal  5.309291e-02 -8.700812e-04 -9.985892e-01
    outer loop
      vertex   1.163417e+04  3.977776e+03  3.592098e+02
      vertex   1.159517e+04  3.298623e+03  3.577278e+02
      vertex   1.149245e+04  3.303787e+03  3.522620e+02
    endloop
  endfacet
  facet normal  8.270194e-02  4.421391e-03 -9.965646e-01
    outer loop
      vertex   1.201325e+04  1.182040e+03  3.796092e+02
      vertex   1.202367e+04  1.354217e+03  3.812385e+02
      vertex   1.203471e+04  1.179313e+03  3.813782e+02
    endloop
  endfacet
  facet normal  7.117579e-02  3.693524e-03 -9.974570e-01
    outer loop
      vertex   1.173124e+04  1.215628e+03  3.598579e+02
      vertex   1.201264e+04  1.529121e+03  3.810988e+02
      vertex   1.202367e+04  1.354217e+03  3.812385e+02
    endloop
  endfacet
  facet normal  7.432453e-02  3.891939e-03 -9.972266e-01
    outer loop
      vertex   1.179535e+04  1.900594e+03  3.663539e+02
      vertex   1.199057e+04  1.878929e+03  3.808194e+02
      vertex   1.200161e+04  1.704025e+03  3.809591e+02
    endloop
  endfacet
  facet normal  7.432456e-02  3.892360e-03 -9.972265e-01
    outer loop
      vertex   1.179535e+04  1.900594e+03  3.663539e+02
      vertex   1.197954e+04  2.053833e+03  3.806797e+02
      vertex   1.199057e+04  1.878929e+03  3.808194e+02
    endloop
  endfacet
  facet normal  7.432494e-02  3.892384e-03 -9.972264e-01
    outer loop
      vertex   1.200161e+04  1.704025e+03  3.809591e+02
      vertex   1.201264e+04  1.529121e+03  3.810988e+02
      vertex   1.179535e+04  1.900594e+03  3.663539e+02
    endloop
  endfacet
  facet normal  7.228476e-02  2.692895e-03 -9.973804e-01
    outer loop
      vertex   1.201264e+04  1.529121e+03  3.810988e+02
      vertex   1.173124e+04  1.215628e+03  3.598579e+02
      vertex   1.179535e+04  1.900594e+03  3.663539e+02
    endloop
  endfacet
  facet normal  5.009292e-02  2.559967e-03 -9.987413e-01
    outer loop
      vertex   1.173124e+04  1.215628e+03  3.598579e+02
      vertex   1.142684e+04  1.247098e+03  3.446711e+02
      vertex   1.159972e+04  1.920010e+03  3.550667e+02
    endloop
  endfacet
  facet normal  5.799795e-02  4.038950e-03 -9.983085e-01
    outer loop
      vertex   1.173124e+04  1.215628e+03  3.598579e+02
      vertex   1.159972e+04  1.920010e+03  3.550667e+02
      vertex   1.179535e+04  1.900594e+03  3.663539e+02
    endloop
  endfacet
  facet normal  7.631052e-02  3.248158e-03 -9.970788e-01
    outer loop
      vertex   1.179535e+04  1.900594e+03  3.663539e+02
      vertex   1.179774e+04  2.593187e+03  3.687930e+02
      vertex   1.195747e+04  2.403640e+03  3.804002e+02
    endloop
  endfacet
  facet normal  7.432486e-02  3.892209e-03 -9.972265e-01
    outer loop
      vertex   1.179535e+04  1.900594e+03  3.663539e+02
      vertex   1.195747e+04  2.403640e+03  3.804002e+02
      vertex   1.196850e+04  2.228737e+03  3.805400e+02
    endloop
  endfacet
  facet normal  7.432457e-02  3.892356e-03 -9.972266e-01
    outer loop
      vertex   1.179535e+04  1.900594e+03  3.663539e+02
      vertex   1.196850e+04  2.228737e+03  3.805400e+02
      vertex   1.197954e+04  2.053833e+03  3.806797e+02
    endloop
  endfacet
  facet normal  4.496694e-02  3.880574e-03 -9.989809e-01
    outer loop
      vertex   1.142684e+04  1.247098e+03  3.446711e+02
      vertex   1.140376e+04  1.937090e+03  3.463123e+02
      vertex   1.159972e+04  1.920010e+03  3.550667e+02
    endloop
  endfacet
  facet normal  3.634497e-02  3.592972e-03 -9.993328e-01
    outer loop
      vertex   1.140376e+04  1.937090e+03  3.463123e+02
      vertex   1.142684e+04  1.247098e+03  3.446711e+02
      vertex   1.127156e+04  1.614460e+03  3.403446e+02
    endloop
  endfacet
  facet normal  7.047893e-02  5.170594e-03 -9.974998e-01
    outer loop
      vertex   1.173124e+04  1.215628e+03  3.598579e+02
      vertex   1.202367e+04  1.354217e+03  3.812385e+02
      vertex   1.201325e+04  1.182040e+03  3.796092e+02
    endloop
  endfacet
  facet normal  7.729105e-02  4.079250e-03 -9.970002e-01
    outer loop
      vertex   1.179774e+04  2.593187e+03  3.687930e+02
      vertex   1.194644e+04  2.578544e+03  3.802605e+02
      vertex   1.195747e+04  2.403640e+03  3.804002e+02
    endloop
  endfacet
  facet normal  7.729109e-02  4.079691e-03 -9.970002e-01
    outer loop
      vertex   1.179774e+04  2.593187e+03  3.687930e+02
      vertex   1.193540e+04  2.753448e+03  3.801208e+02
      vertex   1.194644e+04  2.578544e+03  3.802605e+02
    endloop
  endfacet
  facet normal  8.294179e-02  4.436536e-03 -9.965445e-01
    outer loop
      vertex   1.180013e+04  3.285780e+03  3.712320e+02
      vertex   1.191333e+04  3.103256e+03  3.798414e+02
      vertex   1.192437e+04  2.928352e+03  3.799811e+02
    endloop
  endfacet
  facet normal  8.294094e-02  4.436025e-03 -9.965446e-01
    outer loop
      vertex   1.180013e+04  3.285780e+03  3.712320e+02
      vertex   1.190230e+04  3.278160e+03  3.797017e+02
      vertex   1.191333e+04  3.103256e+03  3.798414e+02
    endloop
  endfacet
  facet normal  7.729109e-02  4.079685e-03 -9.970002e-01
    outer loop
      vertex   1.192437e+04  2.928352e+03  3.799811e+02
      vertex   1.193540e+04  2.753448e+03  3.801208e+02
      vertex   1.179774e+04  2.593187e+03  3.687930e+02
    endloop
  endfacet
  facet normal  8.294098e-02  4.436483e-03 -9.965446e-01
    outer loop
      vertex   1.189127e+04  3.453064e+03  3.795620e+02
      vertex   1.190230e+04  3.278160e+03  3.797017e+02
      vertex   1.180013e+04  3.285780e+03  3.712320e+02
    endloop
  endfacet
  facet normal  7.950853e-02  3.236206e-03 -9.968289e-01
    outer loop
      vertex   1.179774e+04  2.593187e+03  3.687930e+02
      vertex   1.180013e+04  3.285780e+03  3.712320e+02
      vertex   1.192437e+04  2.928352e+03  3.799811e+02
    endloop
  endfacet
  facet normal  8.294126e-02  4.436333e-03 -9.965446e-01
    outer loop
      vertex   1.188023e+04  3.627968e+03  3.794222e+02
      vertex   1.189127e+04  3.453064e+03  3.795620e+02
      vertex   1.180013e+04  3.285780e+03  3.712320e+02
    endloop
  endfacet
  facet normal  9.317698e-02  5.082967e-03 -9.956365e-01
    outer loop
      vertex   1.180219e+04  3.977776e+03  3.739044e+02
      vertex   1.186920e+04  3.802872e+03  3.792825e+02
      vertex   1.188023e+04  3.627968e+03  3.794222e+02
    endloop
  endfacet
  facet normal  9.317537e-02  5.082353e-03 -9.956367e-01
    outer loop
      vertex   1.186920e+04  3.802872e+03  3.792825e+02
      vertex   1.180219e+04  3.977776e+03  3.739044e+02
      vertex   1.185817e+04  3.977776e+03  3.791428e+02
    endloop
  endfacet
  facet normal  8.652688e-02  3.589749e-03 -9.962431e-01
    outer loop
      vertex   1.180219e+04  3.977776e+03  3.739044e+02
      vertex   1.188023e+04  3.627968e+03  3.794222e+02
      vertex   1.180013e+04  3.285780e+03  3.712320e+02
    endloop
  endfacet
  facet normal  3.685501e-02  3.197202e-03 -9.993155e-01
    outer loop
      vertex   1.140376e+04  1.937090e+03  3.463123e+02
      vertex   1.128831e+04  1.966093e+03  3.421473e+02
      vertex   1.149946e+04  2.617856e+03  3.520201e+02
    endloop
  endfacet
  facet normal  3.689741e-02  3.366258e-03 -9.993134e-01
    outer loop
      vertex   1.127156e+04  1.614460e+03  3.403446e+02
      vertex   1.128831e+04  1.966093e+03  3.421473e+02
      vertex   1.140376e+04  1.937090e+03  3.463123e+02
    endloop
  endfacet
  facet normal  5.318143e-02  8.957792e-04 -9.985844e-01
    outer loop
      vertex   1.149245e+04  3.303787e+03  3.522620e+02
      vertex   1.159517e+04  3.298623e+03  3.577278e+02
      vertex   1.149946e+04  2.617856e+03  3.520201e+02
    endloop
  endfacet
  facet normal  3.934718e-02  2.388391e-03 -9.992228e-01
    outer loop
      vertex   1.128831e+04  1.966093e+03  3.421473e+02
      vertex   1.130665e+04  2.352011e+03  3.437921e+02
      vertex   1.149946e+04  2.617856e+03  3.520201e+02
    endloop
  endfacet
  facet normal  4.123100e-02  1.019810e-03 -9.991491e-01
    outer loop
      vertex   1.130665e+04  2.352011e+03  3.437921e+02
      vertex   1.135375e+04  2.735125e+03  3.461266e+02
      vertex   1.149946e+04  2.617856e+03  3.520201e+02
    endloop
  endfacet
  facet normal  3.772791e-02  4.178143e-03 -9.992793e-01
    outer loop
      vertex   1.125480e+04  1.262627e+03  3.382407e+02
      vertex   1.127156e+04  1.614460e+03  3.403446e+02
      vertex   1.142684e+04  1.247098e+03  3.446711e+02
    endloop
  endfacet
  facet normal  3.780454e-02  1.441851e-03 -9.992841e-01
    outer loop
      vertex   1.130665e+04  2.352011e+03  3.437921e+02
      vertex   1.132483e+04  2.735131e+03  3.450325e+02
      vertex   1.135375e+04  2.735125e+03  3.461266e+02
    endloop
  endfacet
  facet normal  4.127315e-02  7.128080e-04 -9.991477e-01
    outer loop
      vertex   1.149245e+04  3.303787e+03  3.522620e+02
      vertex   1.135375e+04  2.735125e+03  3.461266e+02
      vertex   1.135766e+04  2.821477e+03  3.463501e+02
    endloop
  endfacet
  facet normal  4.478326e-02 -3.764282e-04 -9.989967e-01
    outer loop
      vertex   1.136929e+04  3.078124e+03  3.468259e+02
      vertex   1.149245e+04  3.303787e+03  3.522620e+02
      vertex   1.136156e+04  2.907459e+03  3.465438e+02
    endloop
  endfacet
  facet normal  4.269134e-02  3.157607e-04 -9.990882e-01
    outer loop
      vertex   1.135766e+04  2.821477e+03  3.463501e+02
      vertex   1.136156e+04  2.907459e+03  3.465438e+02
      vertex   1.149245e+04  3.303787e+03  3.522620e+02
    endloop
  endfacet
  facet normal  4.683433e-02 -1.498141e-03 -9.989015e-01
    outer loop
      vertex   1.149245e+04  3.303787e+03  3.522620e+02
      vertex   1.136929e+04  3.078124e+03  3.468259e+02
      vertex   1.137689e+04  3.246293e+03  3.469299e+02
    endloop
  endfacet
  facet normal  4.731273e-02 -2.462021e-03 -9.988771e-01
    outer loop
      vertex   1.157665e+04  3.977776e+03  3.545891e+02
      vertex   1.149245e+04  3.303787e+03  3.522620e+02
      vertex   1.137689e+04  3.246293e+03  3.469299e+02
    endloop
  endfacet
  facet normal  4.103176e-02  7.718022e-04 -9.991576e-01
    outer loop
      vertex   1.149946e+04  2.617856e+03  3.520201e+02
      vertex   1.135375e+04  2.735125e+03  3.461266e+02
      vertex   1.149245e+04  3.303787e+03  3.522620e+02
    endloop
  endfacet
  facet normal  5.418826e-02 -4.658252e-03 -9.985199e-01
    outer loop
      vertex   1.157665e+04  3.977776e+03  3.545891e+02
      vertex   1.138430e+04  3.410678e+03  3.467957e+02
      vertex   1.138791e+04  3.490854e+03  3.466176e+02
    endloop
  endfacet
  facet normal  5.086485e-02 -3.528492e-03 -9.986993e-01
    outer loop
      vertex   1.157665e+04  3.977776e+03  3.545891e+02
      vertex   1.138062e+04  3.329060e+03  3.468969e+02
      vertex   1.138430e+04  3.410678e+03  3.467957e+02
    endloop
  endfacet
  facet normal  8.007351e-02 -6.562190e-03 -9.967674e-01
    outer loop
      vertex   1.163417e+04  3.977776e+03  3.592098e+02
      vertex   1.149245e+04  3.303787e+03  3.522620e+02
      vertex   1.157665e+04  3.977776e+03  3.545891e+02
    endloop
  endfacet
  facet normal  7.597446e-02 -1.434650e-02 -9.970066e-01
    outer loop
      vertex   1.157665e+04  3.977776e+03  3.545891e+02
      vertex   1.139144e+04  3.569282e+03  3.463531e+02
      vertex   1.152208e+04  3.977776e+03  3.504303e+02
    endloop
  endfacet
  facet normal  5.341447e-02 -7.116143e-03 -9.985471e-01
    outer loop
      vertex   1.139487e+04  3.645534e+03  3.459932e+02
      vertex   1.152208e+04  3.977776e+03  3.504303e+02
      vertex   1.139144e+04  3.569282e+03  3.463531e+02
    endloop
  endfacet
  facet normal  5.752892e-02 -5.956372e-03 -9.983261e-01
    outer loop
      vertex   1.157665e+04  3.977776e+03  3.545891e+02
      vertex   1.138791e+04  3.490854e+03  3.466176e+02
      vertex   1.139144e+04  3.569282e+03  3.463531e+02
    endloop
  endfacet
  facet normal  4.762268e-02 -2.546824e-03 -9.988621e-01
    outer loop
      vertex   1.138062e+04  3.329060e+03  3.468969e+02
      vertex   1.157665e+04  3.977776e+03  3.545891e+02
      vertex   1.137689e+04  3.246293e+03  3.469299e+02
    endloop
  endfacet
  facet normal  5.713866e-02 -1.158744e-02 -9.982990e-01
    outer loop
      vertex   1.146600e+04  3.977776e+03  3.464108e+02
      vertex   1.139818e+04  3.719169e+03  3.455307e+02
      vertex   1.140439e+04  3.856564e+03  3.442911e+02
    endloop
  endfacet
  facet normal  7.148690e-02 -1.535362e-02 -9.973233e-01
    outer loop
      vertex   1.152208e+04  3.977776e+03  3.504303e+02
      vertex   1.139818e+04  3.719169e+03  3.455307e+02
      vertex   1.146600e+04  3.977776e+03  3.464108e+02
    endloop
  endfacet
  facet normal  6.459797e-02 -1.568544e-02 -9.977881e-01
    outer loop
      vertex   1.140724e+04  3.919394e+03  3.435243e+02
      vertex   1.146600e+04  3.977776e+03  3.464108e+02
      vertex   1.140584e+04  3.888502e+03  3.439190e+02
    endloop
  endfacet
  facet normal  6.281142e-02 -1.447770e-02 -9.979204e-01
    outer loop
      vertex   1.140439e+04  3.856564e+03  3.442911e+02
      vertex   1.140584e+04  3.888502e+03  3.439190e+02
      vertex   1.146600e+04  3.977776e+03  3.464108e+02
    endloop
  endfacet
  facet normal  6.640355e-02 -1.751014e-02 -9.976392e-01
    outer loop
      vertex   1.146600e+04  3.977776e+03  3.464108e+02
      vertex   1.140724e+04  3.919394e+03  3.435243e+02
      vertex   1.140991e+04  3.977776e+03  3.426771e+02
    endloop
  endfacet
  facet normal  5.801444e-02 -8.881026e-03 -9.982762e-01
    outer loop
      vertex   1.139487e+04  3.645534e+03  3.459932e+02
      vertex   1.139818e+04  3.719169e+03  3.455307e+02
      vertex   1.152208e+04  3.977776e+03  3.504303e+02
    endloop
  endfacet
  facet normal  7.632875e-02  1.738080e-02  9.969312e-01
    outer loop
      vertex   1.149172e+04  3.642206e+03  4.160004e+02
      vertex   1.158329e+04  3.977776e+03  4.031385e+02
      vertex   1.152827e+04  3.977776e+03  4.073513e+02
    endloop
  endfacet
  facet normal  5.920529e-02  2.351048e-02  9.979689e-01
    outer loop
      vertex   1.150140e+04  3.303332e+03  4.234095e+02
      vertex   1.156981e+04  3.639980e+03  4.114199e+02
      vertex   1.149172e+04  3.642206e+03  4.160004e+02
    endloop
  endfacet
  facet normal  8.030879e-02  1.628337e-02  9.966370e-01
    outer loop
      vertex   1.163830e+04  3.977776e+03  3.987062e+02
      vertex   1.158329e+04  3.977776e+03  4.031385e+02
      vertex   1.149172e+04  3.642206e+03  4.160004e+02
    endloop
  endfacet
  facet normal  5.926012e-02  2.554366e-02  9.979157e-01
    outer loop
      vertex   1.163830e+04  3.977776e+03  3.987062e+02
      vertex   1.149172e+04  3.642206e+03  4.160004e+02
      vertex   1.156981e+04  3.639980e+03  4.114199e+02
    endloop
  endfacet
  facet normal  6.467518e-02  2.102962e-02  9.976847e-01
    outer loop
      vertex   1.160228e+04  3.298184e+03  4.169785e+02
      vertex   1.150140e+04  3.303332e+03  4.234095e+02
      vertex   1.143243e+04  2.964494e+03  4.350223e+02
    endloop
  endfacet
  facet normal  6.002636e-02  2.340867e-02  9.979223e-01
    outer loop
      vertex   1.160228e+04  3.298184e+03  4.169785e+02
      vertex   1.143243e+04  2.964494e+03  4.350223e+02
      vertex   1.155633e+04  2.956949e+03  4.277468e+02
    endloop
  endfacet
  facet normal  7.178415e-02  2.092679e-02  9.972007e-01
    outer loop
      vertex   1.164780e+04  3.637322e+03  4.058615e+02
      vertex   1.156981e+04  3.639980e+03  4.114199e+02
      vertex   1.150140e+04  3.303332e+03  4.234095e+02
    endloop
  endfacet
  facet normal  6.482189e-02  2.400010e-02  9.976082e-01
    outer loop
      vertex   1.164780e+04  3.637322e+03  4.058615e+02
      vertex   1.150140e+04  3.303332e+03  4.234095e+02
      vertex   1.160228e+04  3.298184e+03  4.169785e+02
    endloop
  endfacet
  facet normal  8.391462e-02  2.048272e-02  9.962625e-01
    outer loop
      vertex   1.169329e+04  3.977776e+03  3.940745e+02
      vertex   1.163830e+04  3.977776e+03  3.987062e+02
      vertex   1.156981e+04  3.639980e+03  4.114199e+02
    endloop
  endfacet
  facet normal  7.191283e-02  2.491283e-02  9.970997e-01
    outer loop
      vertex   1.169329e+04  3.977776e+03  3.940745e+02
      vertex   1.156981e+04  3.639980e+03  4.114199e+02
      vertex   1.164780e+04  3.637322e+03  4.058615e+02
    endloop
  endfacet
  facet normal  8.763602e-02  2.088265e-02  9.959337e-01
    outer loop
      vertex   1.161082e+04  1.918938e+03  4.430035e+02
      vertex   1.141869e+04  1.935841e+03  4.595546e+02
      vertex   1.137317e+04  1.596728e+03  4.706707e+02
    endloop
  endfacet
  facet normal  8.785193e-02  2.072207e-02  9.959180e-01
    outer loop
      vertex   1.161082e+04  1.918938e+03  4.430035e+02
      vertex   1.137317e+04  1.596728e+03  4.706707e+02
      vertex   1.158807e+04  1.576946e+03  4.521259e+02
    endloop
  endfacet
  facet normal  8.770577e-02  1.961953e-02  9.959532e-01
    outer loop
      vertex   1.163384e+04  2.262972e+03  4.341638e+02
      vertex   1.146464e+04  2.277102e+03  4.487855e+02
      vertex   1.141869e+04  1.935841e+03  4.595546e+02
    endloop
  endfacet
  facet normal  8.753747e-02  1.973119e-02  9.959658e-01
    outer loop
      vertex   1.163384e+04  2.262972e+03  4.341638e+02
      vertex   1.141869e+04  1.935841e+03  4.595546e+02
      vertex   1.161082e+04  1.918938e+03  4.430035e+02
    endloop
  endfacet
  facet normal  8.815420e-02  1.893174e-02  9.959269e-01
    outer loop
      vertex   1.165685e+04  2.605586e+03  4.255286e+02
      vertex   1.151048e+04  2.617013e+03  4.382665e+02
      vertex   1.146464e+04  2.277102e+03  4.487855e+02
    endloop
  endfacet
  facet normal  8.767301e-02  1.921592e-02  9.959639e-01
    outer loop
      vertex   1.165685e+04  2.605586e+03  4.255286e+02
      vertex   1.146464e+04  2.277102e+03  4.487855e+02
      vertex   1.163384e+04  2.262972e+03  4.341638e+02
    endloop
  endfacet
  facet normal  8.883899e-02  1.883755e-02  9.958678e-01
    outer loop
      vertex   1.167985e+04  2.948225e+03  4.168928e+02
      vertex   1.155633e+04  2.956949e+03  4.277468e+02
      vertex   1.151048e+04  2.617013e+03  4.382665e+02
    endloop
  endfacet
  facet normal  8.817313e-02  1.918144e-02  9.959205e-01
    outer loop
      vertex   1.167985e+04  2.948225e+03  4.168928e+02
      vertex   1.151048e+04  2.617013e+03  4.382665e+02
      vertex   1.165685e+04  2.605586e+03  4.255286e+02
    endloop
  endfacet
  facet normal  8.948870e-02  1.937450e-02  9.957994e-01
    outer loop
      vertex   1.170288e+04  3.292234e+03  4.080538e+02
      vertex   1.160228e+04  3.298184e+03  4.169785e+02
      vertex   1.155633e+04  2.956949e+03  4.277468e+02
    endloop
  endfacet
  facet normal  8.889370e-02  1.963739e-02  9.958475e-01
    outer loop
      vertex   1.170288e+04  3.292234e+03  4.080538e+02
      vertex   1.155633e+04  2.956949e+03  4.277468e+02
      vertex   1.167985e+04  2.948225e+03  4.168928e+02
    endloop
  endfacet
  facet normal  8.949491e-02  2.062796e-02  9.957737e-01
    outer loop
      vertex   1.172563e+04  3.634250e+03  3.989307e+02
      vertex   1.164780e+04  3.637322e+03  4.058615e+02
      vertex   1.160228e+04  3.298184e+03  4.169785e+02
    endloop
  endfacet
  facet normal  8.955868e-02  2.060428e-02  9.957684e-01
    outer loop
      vertex   1.172563e+04  3.634250e+03  3.989307e+02
      vertex   1.160228e+04  3.298184e+03  4.169785e+02
      vertex   1.170288e+04  3.292234e+03  4.080538e+02
    endloop
  endfacet
  facet normal  8.721371e-02  2.282791e-02  9.959281e-01
    outer loop
      vertex   1.174826e+04  3.977776e+03  3.892604e+02
      vertex   1.169329e+04  3.977776e+03  3.940745e+02
      vertex   1.164780e+04  3.637322e+03  4.058615e+02
    endloop
  endfacet
  facet normal  8.955085e-02  2.212891e-02  9.957364e-01
    outer loop
      vertex   1.174826e+04  3.977776e+03  3.892604e+02
      vertex   1.164780e+04  3.637322e+03  4.058615e+02
      vertex   1.172563e+04  3.634250e+03  3.989307e+02
    endloop
  endfacet
  facet normal  1.343721e-01  1.749057e-02  9.907766e-01
    outer loop
      vertex   1.180173e+04  1.899895e+03  4.174467e+02
      vertex   1.161082e+04  1.918938e+03  4.430035e+02
      vertex   1.158807e+04  1.576946e+03  4.521259e+02
    endloop
  endfacet
  facet normal  1.364749e-01  1.607104e-02  9.905132e-01
    outer loop
      vertex   1.180173e+04  1.899895e+03  4.174467e+02
      vertex   1.158807e+04  1.576946e+03  4.521259e+02
      vertex   1.180154e+04  1.554662e+03  4.230743e+02
    endloop
  endfacet
  facet normal  1.322440e-01  1.661326e-02  9.910780e-01
    outer loop
      vertex   1.180202e+04  2.247055e+03  4.119896e+02
      vertex   1.163384e+04  2.262972e+03  4.341638e+02
      vertex   1.161082e+04  1.918938e+03  4.430035e+02
    endloop
  endfacet
  facet normal  1.341779e-01  1.546345e-02  9.908366e-01
    outer loop
      vertex   1.180202e+04  2.247055e+03  4.119896e+02
      vertex   1.161082e+04  1.918938e+03  4.430035e+02
      vertex   1.180173e+04  1.899895e+03  4.174467e+02
    endloop
  endfacet
  facet normal  1.300111e-01  1.625781e-02  9.913793e-01
    outer loop
      vertex   1.180236e+04  2.592714e+03  4.066566e+02
      vertex   1.165685e+04  2.605586e+03  4.255286e+02
      vertex   1.163384e+04  2.262972e+03  4.341638e+02
    endloop
  endfacet
  facet normal  1.321121e-01  1.516235e-02  9.911188e-01
    outer loop
      vertex   1.180236e+04  2.592714e+03  4.066566e+02
      vertex   1.163384e+04  2.262972e+03  4.341638e+02
      vertex   1.180202e+04  2.247055e+03  4.119896e+02
    endloop
  endfacet
  facet normal  1.270113e-01  1.646919e-02  9.917645e-01
    outer loop
      vertex   1.180270e+04  2.938399e+03  4.013232e+02
      vertex   1.167985e+04  2.948225e+03  4.168928e+02
      vertex   1.165685e+04  2.605586e+03  4.255286e+02
    endloop
  endfacet
  facet normal  1.299186e-01  1.516925e-02  9.914086e-01
    outer loop
      vertex   1.180270e+04  2.938399e+03  4.013232e+02
      vertex   1.165685e+04  2.605586e+03  4.255286e+02
      vertex   1.180236e+04  2.592714e+03  4.066566e+02
    endloop
  endfacet
  facet normal  1.219695e-01  1.733451e-02  9.923825e-01
    outer loop
      vertex   1.180299e+04  3.285534e+03  3.958665e+02
      vertex   1.170288e+04  3.292234e+03  4.080538e+02
      vertex   1.167985e+04  2.948225e+03  4.168928e+02
    endloop
  endfacet
  facet normal  1.269358e-01  1.548457e-02  9.917901e-01
    outer loop
      vertex   1.180299e+04  3.285534e+03  3.958665e+02
      vertex   1.167985e+04  2.948225e+03  4.168928e+02
      vertex   1.180270e+04  2.938399e+03  4.013232e+02
    endloop
  endfacet
  facet normal  1.122037e-01  1.903750e-02  9.935028e-01
    outer loop
      vertex   1.180318e+04  3.630791e+03  3.902384e+02
      vertex   1.172563e+04  3.634250e+03  3.989307e+02
      vertex   1.170288e+04  3.292234e+03  4.080538e+02
    endloop
  endfacet
  facet normal  1.218912e-01  1.611005e-02  9.924127e-01
    outer loop
      vertex   1.180318e+04  3.630791e+03  3.902384e+02
      vertex   1.170288e+04  3.292234e+03  4.080538e+02
      vertex   1.180299e+04  3.285534e+03  3.958665e+02
    endloop
  endfacet
  facet normal  9.025051e-02  2.208106e-02  9.956743e-01
    outer loop
      vertex   1.180322e+04  3.977776e+03  3.842789e+02
      vertex   1.174826e+04  3.977776e+03  3.892604e+02
      vertex   1.172563e+04  3.634250e+03  3.989307e+02
    endloop
  endfacet
  facet normal  1.121202e-01  1.705053e-02  9.935483e-01
    outer loop
      vertex   1.180322e+04  3.977776e+03  3.842789e+02
      vertex   1.172563e+04  3.634250e+03  3.989307e+02
      vertex   1.180318e+04  3.630791e+03  3.902384e+02
    endloop
  endfacet
  facet normal  3.992005e-02  2.505399e-02  9.988887e-01
    outer loop
      vertex   1.136023e+04  2.738303e+03  4.437763e+02
      vertex   1.133076e+04  2.738377e+03  4.449522e+02
      vertex   1.132210e+04  2.547479e+03  4.500866e+02
    endloop
  endfacet
  facet normal  5.359127e-02  2.449966e-02  9.982623e-01
    outer loop
      vertex   1.151048e+04  2.617013e+03  4.382665e+02
      vertex   1.132210e+04  2.547479e+03  4.500866e+02
      vertex   1.131346e+04  2.355571e+03  4.552598e+02
    endloop
  endfacet
  facet normal  5.446780e-02  2.212621e-02  9.982703e-01
    outer loop
      vertex   1.151048e+04  2.617013e+03  4.382665e+02
      vertex   1.136023e+04  2.738303e+03  4.437763e+02
      vertex   1.132210e+04  2.547479e+03  4.500866e+02
    endloop
  endfacet
  facet normal  4.409439e-02  2.458236e-02  9.987249e-01
    outer loop
      vertex   1.143243e+04  2.964494e+03  4.350223e+02
      vertex   1.136768e+04  2.909241e+03  4.392411e+02
      vertex   1.136395e+04  2.823948e+03  4.415050e+02
    endloop
  endfacet
  facet normal  4.412391e-02  2.456793e-02  9.987239e-01
    outer loop
      vertex   1.136395e+04  2.823948e+03  4.415050e+02
      vertex   1.136023e+04  2.738303e+03  4.437763e+02
      vertex   1.143243e+04  2.964494e+03  4.350223e+02
    endloop
  endfacet
  facet normal  5.390700e-02  2.142943e-02  9.983160e-01
    outer loop
      vertex   1.136023e+04  2.738303e+03  4.437763e+02
      vertex   1.151048e+04  2.617013e+03  4.382665e+02
      vertex   1.143243e+04  2.964494e+03  4.350223e+02
    endloop
  endfacet
  facet normal  4.412211e-02  2.454983e-02  9.987245e-01
    outer loop
      vertex   1.137516e+04  3.078583e+03  4.347480e+02
      vertex   1.136768e+04  2.909241e+03  4.392411e+02
      vertex   1.143243e+04  2.964494e+03  4.350223e+02
    endloop
  endfacet
  facet normal  5.550885e-02  2.458790e-02  9.981554e-01
    outer loop
      vertex   1.130487e+04  2.162986e+03  4.604820e+02
      vertex   1.146464e+04  2.277102e+03  4.487855e+02
      vertex   1.131346e+04  2.355571e+03  4.552598e+02
    endloop
  endfacet
  facet normal  6.285165e-02  2.727868e-02  9.976500e-01
    outer loop
      vertex   1.132768e+04  1.256250e+03  4.824586e+02
      vertex   1.127304e+04  1.438831e+03  4.809083e+02
      vertex   1.126538e+04  1.261719e+03  4.862338e+02
    endloop
  endfacet
  facet normal  6.165579e-02  2.559476e-02  9.977692e-01
    outer loop
      vertex   1.137317e+04  1.596728e+03  4.706707e+02
      vertex   1.127304e+04  1.438831e+03  4.809083e+02
      vertex   1.135660e+04  1.253637e+03  4.804957e+02
    endloop
  endfacet
  facet normal  7.034215e-02  2.951535e-02  9.970862e-01
    outer loop
      vertex   1.132768e+04  1.256250e+03  4.824586e+02
      vertex   1.135660e+04  1.253637e+03  4.804957e+02
      vertex   1.127304e+04  1.438831e+03  4.809083e+02
    endloop
  endfacet
  facet normal  6.025006e-02  2.649022e-02  9.978317e-01
    outer loop
      vertex   1.128076e+04  1.615956e+03  4.757404e+02
      vertex   1.127304e+04  1.438831e+03  4.809083e+02
      vertex   1.137317e+04  1.596728e+03  4.706707e+02
    endloop
  endfacet
  facet normal  5.776333e-02  2.526244e-02  9.980106e-01
    outer loop
      vertex   1.141869e+04  1.935841e+03  4.595546e+02
      vertex   1.129631e+04  1.969981e+03  4.657739e+02
      vertex   1.128851e+04  1.793032e+03  4.707042e+02
    endloop
  endfacet
  facet normal  6.009717e-02  2.574781e-02  9.978604e-01
    outer loop
      vertex   1.128076e+04  1.615956e+03  4.757404e+02
      vertex   1.137317e+04  1.596728e+03  4.706707e+02
      vertex   1.128851e+04  1.793032e+03  4.707042e+02
    endloop
  endfacet
  facet normal  5.815065e-02  2.490831e-02  9.979970e-01
    outer loop
      vertex   1.141869e+04  1.935841e+03  4.595546e+02
      vertex   1.128851e+04  1.793032e+03  4.707042e+02
      vertex   1.137317e+04  1.596728e+03  4.706707e+02
    endloop
  endfacet
  facet normal  5.763767e-02  2.480857e-02  9.980293e-01
    outer loop
      vertex   1.130487e+04  2.162986e+03  4.604820e+02
      vertex   1.129631e+04  1.969981e+03  4.657739e+02
      vertex   1.141869e+04  1.935841e+03  4.595546e+02
    endloop
  endfacet
  facet normal  5.470763e-02  1.526914e-02  9.983857e-01
    outer loop
      vertex   1.147309e+04  3.977776e+03  4.113311e+02
      vertex   1.141191e+04  3.855251e+03  4.165573e+02
      vertex   1.140503e+04  3.717038e+03  4.190478e+02
    endloop
  endfacet
  facet normal  5.719016e-02  1.774758e-02  9.982055e-01
    outer loop
      vertex   1.140325e+04  3.680515e+03  4.197995e+02
      vertex   1.152827e+04  3.977776e+03  4.073513e+02
      vertex   1.140503e+04  3.717038e+03  4.190478e+02
    endloop
  endfacet
  facet normal  7.192516e-02  1.074477e-02  9.973521e-01
    outer loop
      vertex   1.152827e+04  3.977776e+03  4.073513e+02
      vertex   1.147309e+04  3.977776e+03  4.113311e+02
      vertex   1.140503e+04  3.717038e+03  4.190478e+02
    endloop
  endfacet
  facet normal  6.701082e-02  7.412961e-03  9.977247e-01
    outer loop
      vertex   1.147309e+04  3.977776e+03  4.113311e+02
      vertex   1.141817e+04  3.977776e+03  4.150193e+02
      vertex   1.141513e+04  3.918686e+03  4.156627e+02
    endloop
  endfacet
  facet normal  6.434631e-02  1.003757e-02  9.978772e-01
    outer loop
      vertex   1.141513e+04  3.918686e+03  4.156627e+02
      vertex   1.141354e+04  3.887474e+03  4.160792e+02
      vertex   1.147309e+04  3.977776e+03  4.113311e+02
    endloop
  endfacet
  facet normal  6.187463e-02  1.167476e-02  9.980157e-01
    outer loop
      vertex   1.141191e+04  3.855251e+03  4.165573e+02
      vertex   1.147309e+04  3.977776e+03  4.113311e+02
      vertex   1.141354e+04  3.887474e+03  4.160792e+02
    endloop
  endfacet
  facet normal  5.488361e-02  1.872234e-02  9.983172e-01
    outer loop
      vertex   1.152827e+04  3.977776e+03  4.073513e+02
      vertex   1.140325e+04  3.680515e+03  4.197995e+02
      vertex   1.140144e+04  3.643317e+03  4.205966e+02
    endloop
  endfacet
  facet normal  4.684034e-02  2.374046e-02  9.986202e-01
    outer loop
      vertex   1.150140e+04  3.303332e+03  4.234095e+02
      vertex   1.138646e+04  3.327835e+03  4.282182e+02
      vertex   1.138268e+04  3.245571e+03  4.303510e+02
    endloop
  endfacet
  facet normal  4.661890e-02  2.419551e-02  9.986197e-01
    outer loop
      vertex   1.138268e+04  3.245571e+03  4.303510e+02
      vertex   1.137516e+04  3.078583e+03  4.347480e+02
      vertex   1.150140e+04  3.303332e+03  4.234095e+02
    endloop
  endfacet
  facet normal  4.510988e-02  2.504553e-02  9.986681e-01
    outer loop
      vertex   1.143243e+04  2.964494e+03  4.350223e+02
      vertex   1.150140e+04  3.303332e+03  4.234095e+02
      vertex   1.137516e+04  3.078583e+03  4.347480e+02
    endloop
  endfacet
  facet normal  4.671921e-02  2.316851e-02  9.986393e-01
    outer loop
      vertex   1.149172e+04  3.642206e+03  4.160004e+02
      vertex   1.138646e+04  3.327835e+03  4.282182e+02
      vertex   1.150140e+04  3.303332e+03  4.234095e+02
    endloop
  endfacet
  facet normal  5.108123e-02  2.017122e-02  9.984908e-01
    outer loop
      vertex   1.152827e+04  3.977776e+03  4.073513e+02
      vertex   1.140144e+04  3.643317e+03  4.205966e+02
      vertex   1.149172e+04  3.642206e+03  4.160004e+02
    endloop
  endfacet
  facet normal  5.107975e-02  2.003970e-02  9.984936e-01
    outer loop
      vertex   1.139775e+04  3.567138e+03  4.223141e+02
      vertex   1.149172e+04  3.642206e+03  4.160004e+02
      vertex   1.140144e+04  3.643317e+03  4.205966e+02
    endloop
  endfacet
  facet normal  4.834823e-02  2.243323e-02  9.985786e-01
    outer loop
      vertex   1.149172e+04  3.642206e+03  4.160004e+02
      vertex   1.139400e+04  3.488893e+03  4.241758e+02
      vertex   1.139023e+04  3.409031e+03  4.261524e+02
    endloop
  endfacet
  facet normal  4.648426e-02  2.324754e-02  9.986485e-01
    outer loop
      vertex   1.138646e+04  3.327835e+03  4.282182e+02
      vertex   1.149172e+04  3.642206e+03  4.160004e+02
      vertex   1.139023e+04  3.409031e+03  4.261524e+02
    endloop
  endfacet
  facet normal  5.002633e-02  2.136050e-02  9.985194e-01
    outer loop
      vertex   1.139775e+04  3.567138e+03  4.223141e+02
      vertex   1.139400e+04  3.488893e+03  4.241758e+02
      vertex   1.149172e+04  3.642206e+03  4.160004e+02
    endloop
  endfacet
  facet normal  5.595360e-02  2.396419e-02  9.981458e-01
    outer loop
      vertex   1.130487e+04  2.162986e+03  4.604820e+02
      vertex   1.141869e+04  1.935841e+03  4.595546e+02
      vertex   1.146464e+04  2.277102e+03  4.487855e+02
    endloop
  endfacet
  facet normal  8.816813e-02  2.425804e-02  9.958102e-01
    outer loop
      vertex   1.158807e+04  1.576946e+03  4.521259e+02
      vertex   1.137317e+04  1.596728e+03  4.706707e+02
      vertex   1.135660e+04  1.253637e+03  4.804957e+02
    endloop
  endfacet
  facet normal  8.779513e-02  2.452739e-02  9.958366e-01
    outer loop
      vertex   1.158807e+04  1.576946e+03  4.521259e+02
      vertex   1.135660e+04  1.253637e+03  4.804957e+02
      vertex   1.152772e+04  1.237228e+03  4.658134e+02
    endloop
  endfacet
  facet normal  1.364349e-01  1.567325e-02  9.905250e-01
    outer loop
      vertex   1.180154e+04  1.554662e+03  4.230743e+02
      vertex   1.158807e+04  1.576946e+03  4.521259e+02
      vertex   1.152772e+04  1.237228e+03  4.658134e+02
    endloop
  endfacet
  facet normal  1.234361e-01  2.708248e-02  9.919829e-01
    outer loop
      vertex   1.180154e+04  1.554662e+03  4.230743e+02
      vertex   1.152772e+04  1.237228e+03  4.658134e+02
      vertex   1.169806e+04  1.219302e+03  4.451064e+02
    endloop
  endfacet
  facet normal  1.897770e-01  1.527367e-02  9.817084e-01
    outer loop
      vertex   1.180202e+04  2.247055e+03  4.119896e+02
      vertex   1.180173e+04  1.899895e+03  4.174467e+02
      vertex   1.197954e+04  2.053833e+03  3.806797e+02
    endloop
  endfacet
  facet normal  1.869459e-01  1.257851e-02  9.822897e-01
    outer loop
      vertex   1.180202e+04  2.247055e+03  4.119896e+02
      vertex   1.197954e+04  2.053833e+03  3.806797e+02
      vertex   1.196850e+04  2.228737e+03  3.805400e+02
    endloop
  endfacet
  facet normal  1.946029e-01  1.587988e-02  9.807535e-01
    outer loop
      vertex   1.180173e+04  1.899895e+03  4.174467e+02
      vertex   1.180154e+04  1.554662e+03  4.230743e+02
      vertex   1.200161e+04  1.704025e+03  3.809591e+02
    endloop
  endfacet
  facet normal  1.917741e-01  1.288128e-02  9.813545e-01
    outer loop
      vertex   1.180173e+04  1.899895e+03  4.174467e+02
      vertex   1.200161e+04  1.704025e+03  3.809591e+02
      vertex   1.199057e+04  1.878929e+03  3.808194e+02
    endloop
  endfacet
  facet normal  1.638480e-01  1.424499e-02  9.863827e-01
    outer loop
      vertex   1.180154e+04  1.554662e+03  4.230743e+02
      vertex   1.169806e+04  1.219302e+03  4.451064e+02
      vertex   1.186723e+04  1.199955e+03  4.172856e+02
    endloop
  endfacet
  facet normal  2.112775e-01  1.410955e-02  9.773243e-01
    outer loop
      vertex   1.202367e+04  1.354217e+03  3.812385e+02
      vertex   1.186723e+04  1.199955e+03  4.172856e+02
      vertex   1.203471e+04  1.179313e+03  3.813782e+02
    endloop
  endfacet
  facet normal  1.965436e-01  1.318249e-02  9.804064e-01
    outer loop
      vertex   1.202367e+04  1.354217e+03  3.812385e+02
      vertex   1.201264e+04  1.529121e+03  3.810988e+02
      vertex   1.180154e+04  1.554662e+03  4.230743e+02
    endloop
  endfacet
  facet normal  1.965437e-01  1.318251e-02  9.804065e-01
    outer loop
      vertex   1.180154e+04  1.554662e+03  4.230743e+02
      vertex   1.201264e+04  1.529121e+03  3.810988e+02
      vertex   1.200161e+04  1.704025e+03  3.809591e+02
    endloop
  endfacet
  facet normal  1.917742e-01  1.288237e-02  9.813545e-01
    outer loop
      vertex   1.199057e+04  1.878929e+03  3.808194e+02
      vertex   1.197954e+04  2.053833e+03  3.806797e+02
      vertex   1.180173e+04  1.899895e+03  4.174467e+02
    endloop
  endfacet
  facet normal  2.040100e-01  2.180736e-02  9.787259e-01
    outer loop
      vertex   1.202367e+04  1.354217e+03  3.812385e+02
      vertex   1.180154e+04  1.554662e+03  4.230743e+02
      vertex   1.186723e+04  1.199955e+03  4.172856e+02
    endloop
  endfacet
  facet normal  1.869459e-01  1.257869e-02  9.822897e-01
    outer loop
      vertex   1.195747e+04  2.403640e+03  3.804002e+02
      vertex   1.180202e+04  2.247055e+03  4.119896e+02
      vertex   1.196850e+04  2.228737e+03  3.805400e+02
    endloop
  endfacet
  facet normal  5.998978e-02  2.279224e-02  9.979388e-01
    outer loop
      vertex   1.143243e+04  2.964494e+03  4.350223e+02
      vertex   1.151048e+04  2.617013e+03  4.382665e+02
      vertex   1.155633e+04  2.956949e+03  4.277468e+02
    endloop
  endfacet
  facet normal  1.816156e-01  1.499307e-02  9.832553e-01
    outer loop
      vertex   1.180270e+04  2.938399e+03  4.013232e+02
      vertex   1.180236e+04  2.592714e+03  4.066566e+02
      vertex   1.194644e+04  2.578544e+03  3.802605e+02
    endloop
  endfacet
  facet normal  1.736993e-01  1.174478e-02  9.847287e-01
    outer loop
      vertex   1.180270e+04  2.938399e+03  4.013232e+02
      vertex   1.194644e+04  2.578544e+03  3.802605e+02
      vertex   1.193540e+04  2.753448e+03  3.801208e+02
    endloop
  endfacet
  facet normal  1.846089e-01  1.498111e-02  9.826979e-01
    outer loop
      vertex   1.180236e+04  2.592714e+03  4.066566e+02
      vertex   1.180202e+04  2.247055e+03  4.119896e+02
      vertex   1.195747e+04  2.403640e+03  3.804002e+02
    endloop
  endfacet
  facet normal  1.813592e-01  1.222587e-02  9.833409e-01
    outer loop
      vertex   1.180236e+04  2.592714e+03  4.066566e+02
      vertex   1.195747e+04  2.403640e+03  3.804002e+02
      vertex   1.194644e+04  2.578544e+03  3.802605e+02
    endloop
  endfacet
  facet normal  1.739783e-01  1.533285e-02  9.846301e-01
    outer loop
      vertex   1.180299e+04  3.285534e+03  3.958665e+02
      vertex   1.180270e+04  2.938399e+03  4.013232e+02
      vertex   1.192437e+04  2.928352e+03  3.799811e+02
    endloop
  endfacet
  facet normal  1.614350e-01  1.097272e-02  9.868224e-01
    outer loop
      vertex   1.180299e+04  3.285534e+03  3.958665e+02
      vertex   1.192437e+04  2.928352e+03  3.799811e+02
      vertex   1.191333e+04  3.103256e+03  3.798414e+02
    endloop
  endfacet
  facet normal  1.395961e-01  1.698726e-02  9.900628e-01
    outer loop
      vertex   1.180322e+04  3.977776e+03  3.842789e+02
      vertex   1.180318e+04  3.630791e+03  3.902384e+02
      vertex   1.188023e+04  3.627968e+03  3.794222e+02
    endloop
  endfacet
  facet normal  9.307000e-02  6.666802e-03  9.956373e-01
    outer loop
      vertex   1.180322e+04  3.977776e+03  3.842789e+02
      vertex   1.188023e+04  3.627968e+03  3.794222e+02
      vertex   1.186920e+04  3.802872e+03  3.792825e+02
    endloop
  endfacet
  facet normal  1.617857e-01  1.599486e-02  9.866962e-01
    outer loop
      vertex   1.180318e+04  3.630791e+03  3.902384e+02
      vertex   1.180299e+04  3.285534e+03  3.958665e+02
      vertex   1.190230e+04  3.278160e+03  3.797017e+02
    endloop
  endfacet
  facet normal  1.393433e-01  9.581708e-03  9.901978e-01
    outer loop
      vertex   1.180318e+04  3.630791e+03  3.902384e+02
      vertex   1.190230e+04  3.278160e+03  3.797017e+02
      vertex   1.189127e+04  3.453064e+03  3.795620e+02
    endloop
  endfacet
  facet normal  1.736993e-01  1.174475e-02  9.847287e-01
    outer loop
      vertex   1.180270e+04  2.938399e+03  4.013232e+02
      vertex   1.193540e+04  2.753448e+03  3.801208e+02
      vertex   1.192437e+04  2.928352e+03  3.799811e+02
    endloop
  endfacet
  facet normal  9.306838e-02  6.666189e-03  9.956374e-01
    outer loop
      vertex   1.180322e+04  3.977776e+03  3.842789e+02
      vertex   1.186920e+04  3.802872e+03  3.792825e+02
      vertex   1.185817e+04  3.977776e+03  3.791428e+02
    endloop
  endfacet
  facet normal  1.393437e-01  9.581916e-03  9.901977e-01
    outer loop
      vertex   1.180318e+04  3.630791e+03  3.902384e+02
      vertex   1.189127e+04  3.453064e+03  3.795620e+02
      vertex   1.188023e+04  3.627968e+03  3.794222e+02
    endloop
  endfacet
  facet normal  1.614333e-01  1.097172e-02  9.868227e-01
    outer loop
      vertex   1.180299e+04  3.285534e+03  3.958665e+02
      vertex   1.191333e+04  3.103256e+03  3.798414e+02
      vertex   1.190230e+04  3.278160e+03  3.797017e+02
    endloop
  endfacet
  facet normal  5.493737e-02  2.348208e-02  9.982137e-01
    outer loop
      vertex   1.131346e+04  2.355571e+03  4.552598e+02
      vertex   1.146464e+04  2.277102e+03  4.487855e+02
      vertex   1.151048e+04  2.617013e+03  4.382665e+02
    endloop
  endfacet
endsolid vcg
